
<svg version="1.0" xmlns="http://www.w3.org/2000/svg"
 width="4332.000000pt" height="2392.000000pt" viewBox="0 0 4332.000000 2392.000000"
 preserveAspectRatio="xMidYMid meet">
<metadata>
Created by potrace 1.16, written by Peter Selinger 2001-2019
</metadata>
<g transform="translate(0.000000,2392.000000) scale(0.100000,-0.100000)"
fill="#000000" stroke="none">
<path d="M27816 23856 c-42 -35 -131 -113 -198 -173 -303 -270 -437 -375 -630
-491 l-36 -23 30 72 c57 135 80 249 85 416 7 192 4 203 -45 203 l-38 0 -33
-97 c-82 -237 -160 -408 -246 -538 -60 -90 -197 -228 -265 -268 -40 -23 -259
-87 -298 -87 -8 0 3 21 26 48 161 193 262 443 286 710 6 66 7 65 -46 76 -25 6
-29 0 -88 -112 -148 -279 -264 -448 -397 -579 -127 -125 -299 -232 -396 -246
-42 -6 -43 -11 13 73 82 122 161 303 203 465 29 109 54 281 44 291 -3 4 -22 7
-42 8 l-36 1 -125 -225 c-263 -471 -437 -686 -591 -732 -31 -9 -59 -16 -60
-14 -2 2 10 37 27 79 71 177 103 360 98 552 l-3 120 -40 3 -40 3 -59 -153
c-96 -251 -173 -429 -228 -524 -51 -90 -120 -185 -154 -215 -19 -17 -185 -91
-190 -86 -2 2 3 24 11 49 50 167 65 515 31 696 l-18 93 -41 -3 c-48 -4 -41 17
-112 -313 -82 -377 -119 -499 -188 -635 -41 -80 -45 -84 -148 -155 l-105 -72
7 55 c34 246 10 607 -55 822 -13 43 -15 45 -55 48 -22 2 -41 0 -41 -5 0 -4 -5
-35 -10 -68 -5 -33 -21 -184 -35 -335 -39 -416 -63 -560 -121 -720 -22 -63
-77 -146 -104 -158 -3 -1 -14 71 -23 160 -30 297 -82 548 -147 718 -31 79 -32
80 -66 80 -28 0 -36 -5 -44 -26 -16 -42 -11 -389 10 -699 11 -159 20 -346 20
-414 l0 -124 -72 -110 c-126 -194 -271 -497 -334 -699 -10 -32 -21 -58 -25
-58 -4 0 -67 29 -140 65 -156 75 -330 134 -490 167 -98 20 -144 23 -334 23
-189 0 -236 -3 -332 -23 -213 -43 -433 -121 -601 -213 -41 -22 -75 -39 -76
-37 -1 2 -22 59 -45 127 -79 227 -186 444 -322 652 l-62 94 6 205 c4 113 13
293 22 400 15 197 20 562 9 618 -5 25 -12 31 -42 37 -24 4 -37 2 -43 -7 -5 -7
-26 -67 -48 -133 -61 -184 -115 -475 -137 -743 l-7 -83 -38 37 c-93 90 -146
325 -194 849 -23 252 -39 393 -47 400 -2 2 -19 6 -40 10 l-36 7 -16 -55 c-70
-241 -92 -554 -56 -807 5 -35 8 -66 6 -67 -2 -2 -49 27 -104 64 -99 67 -102
70 -146 153 -73 141 -113 277 -206 709 -53 249 -50 241 -99 241 l-39 0 -18
-92 c-12 -65 -18 -143 -18 -258 0 -168 10 -265 45 -402 10 -42 19 -79 19 -81
0 -3 -42 12 -92 34 -104 45 -121 60 -210 194 -80 119 -131 230 -239 508 -50
128 -93 235 -97 238 -4 4 -24 4 -44 2 l-38 -5 0 -143 c0 -197 32 -355 109
-542 l29 -71 -64 18 c-72 21 -111 49 -199 141 -125 132 -218 270 -400 597
l-130 233 -30 -7 c-47 -10 -48 -12 -41 -89 19 -205 121 -485 253 -689 l44 -68
-48 7 c-104 15 -279 131 -421 280 -127 132 -206 255 -397 610 -19 37 -24 40
-60 38 -21 -2 -40 -4 -42 -6 -9 -9 20 -212 42 -297 32 -122 134 -328 220 -443
61 -82 63 -87 38 -81 -264 62 -283 71 -399 176 -149 136 -265 345 -389 701
l-38 107 -37 0 c-25 0 -40 -5 -44 -16 -12 -31 -6 -263 9 -345 18 -93 58 -224
87 -281 10 -21 15 -38 10 -38 -15 0 -244 154 -323 218 -42 33 -157 132 -256
219 -290 257 -360 314 -377 307 -22 -8 -20 -30 10 -126 89 -281 330 -551 724
-810 111 -74 375 -214 480 -255 24 -10 22 -12 -40 -43 -199 -99 -322 -239
-352 -397 -14 -77 -8 -93 35 -93 27 0 44 11 92 58 113 109 243 183 480 272
167 63 193 65 365 28 69 -15 153 -30 187 -34 l63 -7 -56 -33 c-185 -111 -320
-268 -340 -394 -6 -33 -4 -36 29 -48 35 -13 37 -12 96 35 140 113 345 217 599
304 l144 49 86 -22 c64 -16 81 -23 66 -29 -251 -101 -360 -162 -451 -251 l-52
-51 20 -29 c11 -15 29 -28 41 -28 27 0 118 23 540 137 l357 96 108 -43 c59
-24 142 -59 183 -78 l74 -35 -181 -43 c-215 -51 -352 -92 -469 -141 l-85 -35
3 -42 3 -41 90 -8 c169 -16 454 17 818 94 168 36 147 40 272 -49 l80 -57 -130
-7 c-214 -11 -364 -38 -477 -87 -46 -19 -47 -21 -42 -53 4 -18 9 -36 13 -40
12 -13 158 -27 549 -54 l393 -28 67 -75 c98 -109 186 -221 179 -227 -3 -3 -30
-1 -59 6 -83 19 -313 24 -409 10 -120 -17 -242 -57 -235 -77 3 -8 6 -25 6 -38
0 -28 -16 -23 275 -75 221 -39 448 -90 580 -131 l62 -19 62 -131 c64 -133 141
-327 141 -354 0 -8 -9 -19 -21 -25 -17 -10 -26 -6 -61 25 -58 53 -171 103
-284 127 -87 17 -124 19 -309 15 -173 -4 -252 -11 -450 -41 -283 -43 -447 -55
-596 -45 -226 17 -351 75 -401 187 -24 53 -33 49 -18 -8 25 -94 149 -180 317
-218 195 -46 334 -50 756 -26 310 18 467 11 612 -26 98 -25 191 -68 227 -104
l26 -27 -86 -78 c-210 -189 -413 -424 -614 -708 -72 -101 -83 -113 -116 -119
-236 -40 -520 -152 -756 -298 -232 -144 -413 -293 -662 -549 l-180 -184 -305
-151 c-963 -476 -2004 -854 -2969 -1076 -263 -60 -456 -97 -787 -151 -1120
-183 -2314 -469 -3603 -865 -385 -118 -1555 -504 -1911 -631 -1145 -406 -1909
-739 -2489 -1084 -242 -144 -438 -249 -955 -513 -799 -407 -1146 -603 -1600
-905 -524 -349 -1106 -802 -1506 -1174 -735 -682 -1311 -1561 -1609 -2453
-138 -413 -152 -612 -65 -955 68 -268 197 -563 342 -785 261 -398 646 -726
1103 -942 80 -38 168 -80 195 -95 28 -14 109 -56 180 -94 468 -244 996 -339
1495 -268 186 26 741 37 1008 20 902 -59 1796 -279 2620 -647 231 -103 537
-264 683 -359 161 -104 503 -275 689 -344 376 -139 776 -227 1183 -260 162
-14 565 -14 722 -1 283 24 546 67 808 131 87 22 161 39 165 39 4 0 7 -100 8
-223 1 -143 7 -268 18 -352 94 -728 399 -1391 935 -2035 124 -149 461 -486
625 -626 156 -133 384 -310 486 -377 105 -69 442 -232 650 -315 1061 -422
2210 -539 3268 -333 l153 30 72 -39 c333 -179 831 -333 1277 -395 157 -22 601
-31 767 -16 757 70 1424 373 2044 926 l121 108 61 -60 c103 -99 222 -199 363
-304 494 -369 1028 -588 1644 -675 159 -23 706 -26 870 -6 487 61 925 187
1339 383 l125 59 90 -19 c282 -61 631 -99 981 -107 886 -22 1794 168 2621 549
220 101 356 180 519 302 957 716 1582 1577 1819 2505 71 278 97 496 97 797 0
123 2 223 4 223 2 0 68 -16 147 -35 553 -134 1141 -172 1686 -110 622 72 1260
294 1707 595 99 66 358 204 570 303 855 399 1785 636 2735 696 317 21 806 11
980 -19 193 -34 500 -31 730 6 290 46 617 161 873 306 61 35 137 74 167 87
194 81 469 246 636 381 463 375 779 936 868 1541 21 138 21 395 0 540 -50 360
-255 898 -513 1349 -365 635 -827 1171 -1471 1705 -656 543 -1285 976 -1980
1360 -107 59 -411 218 -675 353 -549 280 -774 400 -1000 534 -542 320 -1111
580 -2020 921 -671 252 -1806 632 -2600 870 -1270 382 -2342 634 -3485 821
-1235 202 -2493 619 -3735 1238 l-260 129 -159 165 c-465 483 -914 760 -1385
854 -51 10 -97 22 -101 27 -4 4 -49 63 -99 131 -154 205 -286 359 -455 528
-89 88 -181 178 -205 199 l-44 38 29 25 c119 99 404 146 744 122 530 -37 790
-18 978 70 35 16 81 43 102 60 41 33 80 101 80 141 0 18 -6 12 -24 -27 -59
-127 -218 -185 -511 -185 -163 0 -229 6 -525 52 -233 37 -549 50 -678 29 -126
-20 -270 -80 -337 -141 -18 -15 -22 -16 -39 -3 -20 14 -20 15 3 87 28 86 121
300 163 374 26 48 35 54 81 67 29 8 91 26 139 40 84 24 257 59 563 114 l150
27 6 38 c5 34 3 39 -20 52 -91 47 -297 70 -479 55 -70 -6 -145 -15 -167 -20
-22 -5 -41 -8 -42 -6 -6 5 136 175 202 242 l70 71 225 12 c218 12 612 45 677
57 27 5 32 11 35 42 3 21 0 40 -6 45 -6 4 -53 21 -105 38 -102 32 -253 59
-341 59 -30 0 -85 3 -122 7 l-68 6 53 39 c28 21 73 53 99 69 l48 31 107 -26
c355 -83 726 -124 907 -100 46 7 46 7 46 45 0 35 -4 41 -37 57 -103 52 -309
116 -532 166 -84 19 -155 37 -157 39 -5 5 73 40 240 108 l119 49 327 -90 c180
-49 385 -104 456 -121 140 -33 133 -34 165 23 12 21 -71 98 -177 164 -73 46
-286 144 -311 144 -7 0 -13 4 -13 8 0 5 36 17 81 27 l81 19 116 -38 c240 -79
444 -180 604 -298 81 -60 98 -65 138 -39 12 9 13 17 2 58 -31 115 -158 262
-302 351 -70 43 -79 52 -59 55 13 3 108 21 211 41 l186 36 134 -46 c246 -83
427 -183 536 -294 44 -45 54 -50 92 -50 l43 0 -6 59 c-14 158 -149 322 -350
424 l-69 35 74 33 c424 193 794 466 987 728 72 98 153 258 176 350 28 112 10
117 -99 27z m-5781 -3266 c55 -11 146 -36 201 -55 98 -33 328 -134 321 -142
-2 -2 -51 8 -108 21 -189 45 -369 67 -609 73 -316 8 -549 -14 -864 -82 -83
-18 -152 -32 -154 -30 -6 5 143 78 244 118 133 53 269 92 389 112 136 22 449
14 580 -15z m-90 -280 c186 -14 321 -34 490 -75 123 -30 355 -103 394 -124 8
-5 -10 -13 -48 -20 -143 -28 -204 -155 -172 -357 14 -84 46 -186 81 -254 55
-108 217 -236 362 -287 82 -29 210 -41 257 -25 l31 11 -30 -59 c-33 -66 -65
-173 -75 -253 l-7 -54 -105 44 c-98 40 -333 118 -429 143 -33 8 -51 22 -82 63
-51 65 -169 180 -242 234 -213 159 -490 236 -763 212 -312 -27 -620 -204 -820
-473 l-44 -58 -151 -44 c-83 -24 -211 -66 -285 -94 -73 -27 -137 -50 -140 -50
-4 0 -7 25 -7 55 0 100 -32 220 -88 327 -2 4 11 2 28 -4 19 -6 67 -9 119 -6
154 9 316 91 439 222 92 98 154 275 155 441 0 159 -56 240 -185 267 l-60 12
84 29 c414 140 893 206 1293 177z m-1990 -714 c-22 -74 -28 -194 -12 -254 13
-49 13 -52 -3 -47 -34 11 -135 25 -177 25 -24 0 -43 3 -43 6 0 13 234 314 245
314 2 0 -3 -20 -10 -44z m3624 -121 l112 -140 -95 -12 c-52 -6 -104 -17 -116
-23 -20 -11 -21 -10 -13 12 10 28 11 218 1 272 -4 21 -6 37 -4 35 2 -2 54 -67
115 -144z m-3806 -415 c38 0 53 -5 71 -25 38 -41 56 -126 56 -266 l-1 -124
-76 -55 c-103 -74 -301 -240 -513 -429 -350 -312 -440 -419 -560 -666 -166
-340 -240 -715 -240 -1225 0 -232 11 -406 40 -627 l20 -153 -113 -232 c-63
-128 -143 -297 -178 -375 l-64 -142 -6 67 c-10 109 -10 367 1 517 28 383 111
786 225 1090 l35 93 -23 123 c-19 107 -22 157 -22 364 1 211 3 253 23 345 49
227 131 423 251 602 129 193 183 241 702 624 259 190 468 348 465 351 -2 3
-249 -92 -548 -210 -299 -119 -579 -225 -623 -236 -111 -28 -336 -73 -341 -68
-3 2 30 36 73 74 325 291 681 489 1003 558 82 18 243 35 275 29 11 -2 42 -4
68 -4z m4227 -19 c347 -86 672 -269 1002 -565 37 -33 66 -62 64 -64 -6 -5
-212 34 -327 63 -54 14 -337 120 -640 240 -459 182 -577 225 -548 202 2 -2
202 -149 444 -327 508 -373 523 -385 614 -494 181 -215 300 -462 362 -756 20
-91 23 -136 23 -330 1 -191 -2 -245 -22 -360 l-23 -135 34 -90 c96 -250 177
-612 212 -943 19 -177 28 -498 18 -631 l-8 -104 -54 119 c-96 211 -228 487
-269 561 l-40 73 10 102 c15 142 15 694 0 853 -62 641 -211 1098 -480 1464
-141 192 -438 452 -801 702 l-93 64 6 75 c14 155 59 279 109 301 39 16 313 3
407 -20z m-1775 -215 c363 -52 716 -157 996 -299 184 -93 558 -370 762 -566
189 -182 311 -366 410 -616 55 -142 57 -128 -15 -176 -35 -23 -113 -93 -174
-155 -109 -110 -114 -113 -185 -134 -237 -69 -235 -67 -271 -112 -20 -24 -77
-88 -127 -143 -107 -117 -171 -207 -171 -242 0 -24 0 -24 27 7 14 17 80 77
145 132 65 55 143 124 172 154 52 53 54 54 162 79 60 13 118 27 130 30 20 6
22 2 27 -57 9 -101 24 -139 74 -185 l46 -43 -7 -58 c-4 -33 -17 -99 -30 -148
-14 -49 -22 -91 -20 -93 8 -8 33 32 81 126 66 132 71 242 11 274 -25 14 -37
46 -52 153 -15 99 -21 83 63 178 33 38 184 168 194 168 8 0 53 -196 77 -330
52 -298 73 -732 50 -1045 -7 -93 -16 -224 -20 -290 -6 -103 -12 -133 -42 -210
-64 -165 -118 -371 -143 -551 -9 -59 -17 -109 -19 -111 -6 -7 -127 140 -137
165 -6 14 -32 63 -60 109 -73 121 -124 234 -160 358 -28 100 -31 118 -25 197
4 48 15 120 25 160 30 117 35 191 17 226 -19 37 -52 62 -83 62 -33 0 -103 -71
-103 -103 0 -16 -6 -27 -13 -27 -21 0 -65 -98 -78 -175 -31 -180 25 -484 118
-645 100 -172 288 -429 421 -575 78 -85 93 -107 99 -145 4 -25 7 -146 7 -270
-1 -187 -4 -242 -22 -326 -43 -213 -104 -338 -221 -455 -62 -62 -93 -85 -171
-122 -93 -44 -200 -77 -253 -77 -44 0 -87 68 -87 137 0 30 -7 70 -16 89 -15
32 -75 82 -116 97 -12 4 -18 17 -18 37 0 43 -22 82 -71 123 -39 34 -40 36 -20
47 12 6 47 15 78 21 78 15 127 41 153 84 15 25 27 34 39 30 45 -14 137 282
158 510 6 64 -30 284 -64 394 -38 121 -97 207 -187 275 -40 30 -57 36 -90 35
-41 -2 -135 13 -211 35 -22 6 -65 9 -95 6 -42 -4 -78 2 -149 23 -117 34 -211
43 -271 27 -25 -7 -83 -13 -130 -14 -76 -1 -93 -5 -155 -36 -46 -23 -77 -46
-90 -67 -11 -18 -31 -36 -45 -39 -62 -16 -120 -62 -120 -94 0 -10 -15 -46 -32
-80 -32 -62 -33 -67 -32 -180 2 -82 8 -139 22 -191 11 -41 25 -98 31 -128 25
-120 132 -248 305 -365 137 -93 254 -150 435 -212 84 -29 158 -60 165 -68 6
-7 47 -33 90 -57 l79 -42 -7 26 c-6 26 -5 26 21 15 51 -21 73 -49 73 -88 0
-45 60 -127 100 -137 42 -10 50 -23 50 -80 0 -38 8 -68 25 -104 29 -57 34 -52
-80 -69 -157 -23 -412 -82 -557 -130 -139 -46 -292 -111 -331 -142 -19 -14
-17 -18 59 -117 2 -2 22 8 46 21 46 27 205 93 276 114 32 10 42 10 42 1 -1
-41 -43 -206 -65 -254 -25 -56 -79 -123 -98 -123 -11 0 -57 -47 -57 -59 0 -4
-9 -16 -21 -27 -17 -15 -33 -18 -82 -15 -33 1 -70 9 -81 16 -77 49 -336 10
-336 -50 0 -8 -13 -21 -30 -30 -27 -14 -30 -14 -30 0 0 19 -23 19 -89 -1 -50
-15 -55 -14 -97 5 -24 12 -48 21 -53 21 -5 0 -15 7 -22 16 -17 20 -65 13 -141
-20 -40 -18 -67 -23 -104 -20 -81 6 -117 14 -157 36 -46 24 -80 20 -135 -17
-52 -34 -125 -41 -172 -17 -19 10 -34 23 -33 30 5 20 -38 35 -81 28 -281 -43
-288 -44 -371 -29 -44 8 -101 25 -126 39 -26 13 -56 24 -68 24 -64 0 -141 239
-141 438 0 72 -2 72 96 38 104 -35 172 -73 229 -127 29 -27 56 -49 61 -49 5 0
29 17 53 38 39 34 43 40 32 60 -19 35 -125 116 -205 155 -150 74 -341 113
-721 147 -126 11 -249 23 -271 26 l-42 6 30 56 c20 40 29 69 27 97 -3 61 -2
64 38 80 57 24 102 82 103 131 0 29 6 47 24 63 27 25 154 74 174 66 44 -17
365 79 542 162 202 94 423 269 484 382 38 71 93 293 101 411 7 102 -6 165 -46
222 -11 14 -19 36 -19 48 0 32 -59 86 -107 99 -31 8 -47 20 -62 47 -34 56
-131 97 -246 101 -49 2 -112 8 -138 15 -59 14 -163 2 -277 -34 -56 -17 -89
-22 -130 -18 -30 3 -66 2 -80 -3 -42 -14 -183 -39 -231 -40 -86 -3 -183 -95
-247 -232 -41 -86 -91 -332 -92 -442 0 -118 63 -389 116 -495 19 -37 27 -45
44 -41 11 3 20 0 20 -6 0 -6 18 -29 39 -50 30 -30 53 -42 95 -52 54 -12 55
-13 33 -27 -72 -48 -117 -110 -117 -162 0 -16 -4 -30 -8 -30 -5 0 -29 -14 -55
-31 -56 -37 -87 -95 -87 -163 0 -50 -10 -77 -43 -113 -24 -27 -45 -24 -131 20
-251 125 -435 549 -438 1007 -2 208 0 214 85 307 101 109 168 195 289 369 156
225 222 368 254 544 16 91 18 255 3 336 -12 66 -55 154 -76 154 -7 0 -13 11
-13 26 0 17 -14 40 -39 65 -46 46 -86 52 -119 17 -47 -51 -49 -105 -10 -258
10 -41 21 -115 25 -165 5 -78 2 -103 -21 -190 -30 -109 -85 -233 -162 -365
-27 -47 -55 -97 -63 -111 -7 -15 -36 -55 -64 -89 l-52 -63 -7 29 c-4 16 -14
79 -23 139 -20 133 -60 292 -114 452 -44 128 -48 158 -30 225 9 35 8 67 -10
173 -41 257 -53 448 -48 760 5 303 19 441 67 642 64 272 177 512 324 687 107
127 713 651 899 778 147 100 574 250 918 323 60 13 109 21 109 18 0 -2 -16
-29 -36 -61 -49 -76 -139 -169 -251 -258 -50 -41 -101 -87 -112 -103 -35 -49
-70 -133 -77 -184 -6 -44 -12 -52 -58 -87 -72 -55 -124 -75 -251 -100 -132
-26 -169 -41 -214 -83 -62 -59 -94 -176 -56 -207 13 -11 15 -8 15 19 0 58 40
111 109 146 21 11 75 21 140 26 111 9 196 32 267 74 l43 26 7 -28 c36 -159 71
-252 151 -401 l55 -104 0 -111 c-1 -69 -7 -135 -17 -172 -25 -93 -89 -216
-165 -316 -38 -50 -72 -104 -75 -120 -14 -64 34 -129 95 -129 29 0 24 13 -13
30 -74 35 -67 91 26 190 87 91 161 214 199 330 29 86 32 107 32 225 l1 130
-52 95 c-137 251 -183 455 -133 596 26 76 55 112 163 197 51 41 120 104 155
141 l62 67 0 -38 c0 -55 17 -107 42 -130 13 -12 59 -33 103 -48 44 -14 104
-40 134 -57 78 -45 187 -151 214 -209 25 -56 42 -64 33 -16 -28 143 -193 312
-368 374 -56 21 -58 27 -58 198 l0 123 102 12 c211 26 260 28 533 25 181 -2
319 -9 390 -19z m3121 -767 c98 -12 101 -13 399 -160 1121 -552 2298 -959
3390 -1173 99 -19 332 -60 518 -91 1087 -179 2296 -473 3572 -869 710 -220
2297 -758 2282 -773 -3 -2 -94 19 -203 46 -1064 267 -2233 460 -3424 566 -594
53 -813 77 -1195 131 -1196 168 -2423 490 -3295 864 -212 91 -2100 1004 -2151
1040 -37 27 -49 44 -68 97 -30 82 -97 220 -150 306 -22 37 -41 69 -41 71 0 1
60 -7 134 -20 73 -12 178 -28 232 -35z m-6918 29 c-66 -102 -185 -348 -204
-422 -5 -20 -108 -74 -652 -342 -356 -174 -768 -378 -917 -452 -342 -170 -426
-205 -698 -297 -899 -302 -2197 -574 -4127 -865 -1594 -240 -3033 -543 -4390
-924 -68 -20 -125 -34 -127 -32 -9 9 723 285 1177 444 346 121 1377 460 1735
570 1331 411 2504 692 3670 882 673 109 1230 248 1925 479 674 225 1296 483
1912 792 130 66 249 119 265 119 15 1 118 16 228 34 110 18 204 34 209 35 4 0
2 -9 -6 -21z m7010 -996 c429 -338 1441 -1109 2682 -2042 631 -474 691 -522
650 -515 -70 12 -434 9 -535 -4 -241 -32 -427 -86 -621 -181 -218 -106 -412
-251 -499 -373 -22 -31 -42 -56 -45 -56 -3 0 -409 595 -904 1321 l-899 1322
14 116 c8 63 14 206 14 317 0 112 1 203 3 203 1 0 64 -49 140 -108z m-7298
-445 l13 -88 -49 -72 c-27 -40 -434 -636 -904 -1325 -766 -1126 -855 -1252
-867 -1235 -170 240 -520 455 -890 547 -186 47 -310 60 -559 60 l-230 0 550
415 c1188 894 2413 1828 2831 2158 l80 63 6 -217 c3 -120 12 -258 19 -306z
m-620 449 c0 -12 -1376 -1060 -2643 -2013 l-670 -504 -31 53 c-46 81 -186 215
-311 298 -255 168 -730 361 -1047 424 -195 40 -325 49 -577 43 -370 -9 -690
-70 -1086 -207 -296 -103 -687 -285 -952 -444 -143 -85 -143 -86 -250 -101
-709 -104 -1481 -381 -2108 -758 -258 -155 -574 -387 -776 -568 l-76 -69 -129
-26 c-610 -123 -1211 -467 -1599 -914 -270 -311 -398 -449 -879 -944 -390
-401 -547 -535 -766 -654 -65 -35 -94 -43 -210 -62 -162 -26 -357 -29 -439 -6
-160 44 -208 158 -147 351 65 206 279 531 581 885 56 66 190 178 690 578 341
273 639 513 662 535 36 33 43 46 43 78 0 28 -6 42 -22 53 -36 25 -63 19 -110
-26 -24 -23 -196 -163 -383 -312 -761 -606 -1083 -867 -1403 -1139 -193 -164
-295 -239 -358 -263 -39 -15 -47 -15 -55 -3 -21 34 3 166 63 344 l41 120 246
250 c135 138 320 328 411 423 152 160 175 180 298 258 432 276 678 412 1568
867 413 211 582 302 811 439 127 75 147 83 475 193 1566 522 3448 956 5468
1260 1888 283 3210 558 4105 852 352 115 432 151 1395 630 183 91 170 85 170
79z m9115 -336 c711 -344 912 -429 1411 -596 1096 -366 2291 -601 3654 -719
2020 -175 3850 -562 5346 -1130 196 -75 254 -102 404 -190 338 -198 610 -345
1020 -550 589 -295 1022 -536 1421 -791 143 -92 151 -99 337 -297 105 -111
290 -301 411 -422 l221 -220 0 -111 c0 -178 -30 -291 -85 -316 -21 -10 -36 -6
-101 27 -69 34 -103 64 -355 311 -154 150 -369 356 -478 457 -391 363 -1097
981 -1138 998 -48 18 -101 -27 -89 -76 4 -15 76 -84 184 -177 611 -525 1305
-1163 1539 -1417 359 -387 591 -813 542 -994 -17 -64 -80 -120 -162 -142 -55
-15 -92 -17 -234 -12 -223 7 -323 26 -436 85 -105 55 -269 176 -421 312 -239
213 -880 885 -1226 1285 -151 175 -400 383 -621 520 -197 122 -464 243 -684
311 -81 25 -96 33 -150 87 -134 132 -384 331 -610 483 -734 495 -1738 918
-2778 1169 l-199 48 -141 85 c-566 340 -1194 566 -1792 643 -150 20 -543 17
-685 -4 -239 -36 -483 -110 -785 -239 -345 -147 -595 -322 -707 -495 -22 -35
-43 -63 -45 -63 -15 0 -3202 2409 -3263 2467 -19 17 71 -25 695 -327z m-490
-2025 c329 -484 622 -914 650 -955 l53 -75 -262 -1 c-355 -2 -601 -33 -796
-99 l-71 -24 -8 22 c-5 12 -68 157 -141 322 -110 251 -131 306 -126 335 45
300 57 396 67 556 16 256 -1 662 -37 874 -6 35 -6 35 33 -20 22 -30 309 -451
638 -935z m-8210 867 c-53 -403 -43 -860 26 -1258 l22 -122 -138 -313 c-75
-173 -140 -317 -144 -322 -4 -4 -27 0 -51 8 -131 46 -405 75 -802 84 l-286 6
690 1013 c380 557 692 1011 693 1010 2 -2 -3 -49 -10 -106z m13540 -492 c344
-51 689 -155 1060 -319 239 -106 598 -303 654 -359 13 -13 128 -85 255 -159
605 -355 1117 -671 1541 -954 341 -227 489 -337 620 -461 130 -122 143 -126
321 -102 177 24 533 24 699 0 511 -73 961 -268 1350 -584 143 -116 212 -183
406 -397 253 -279 660 -680 846 -834 178 -147 182 -153 224 -311 73 -278 -5
-453 -223 -501 -76 -17 -254 -17 -358 0 -124 20 -332 72 -375 94 -120 60 -390
269 -725 562 -364 317 -713 642 -1423 1325 l-128 123 -47 -46 -46 -47 49 -51
c71 -72 638 -616 835 -800 354 -331 668 -610 923 -823 l117 -98 0 -64 c0 -158
-69 -347 -155 -422 -131 -115 -308 -129 -565 -43 -140 47 -255 99 -412 189
l-120 67 -292 305 c-161 168 -366 384 -456 480 -90 96 -195 208 -233 249 l-69
73 -44 -43 c-24 -24 -44 -48 -44 -54 1 -9 96 -113 555 -601 l105 -111 10 -99
c16 -151 -5 -315 -51 -407 -105 -208 -322 -250 -679 -131 -125 42 -289 125
-532 271 -221 133 -703 454 -701 468 1 6 30 27 65 48 109 66 210 147 308 246
525 528 457 1311 -189 2182 -242 325 -512 506 -873 586 -117 25 -427 25 -547
0 -279 -60 -449 -155 -666 -372 -275 -275 -406 -558 -405 -877 1 -321 114
-581 415 -958 554 -693 961 -980 1390 -980 94 0 222 19 293 44 l38 14 43 -96
c160 -361 203 -664 117 -829 -40 -78 -136 -140 -231 -150 -119 -12 -290 65
-500 226 -394 303 -1027 1035 -1606 1857 -94 134 -321 399 -1314 1535 -790
904 -1206 1388 -1219 1416 -28 64 -12 106 71 194 219 231 871 503 1318 549
137 14 439 4 600 -20z m-18905 -20 c145 -18 290 -50 426 -95 464 -155 810
-349 916 -514 32 -51 35 -92 10 -138 -32 -60 -883 -1130 -1627 -2048 -214
-264 -552 -683 -750 -930 -524 -655 -808 -990 -832 -980 -7 3 -19 7 -27 10 -9
4 -26 -20 -53 -77 -38 -78 -54 -96 -245 -283 -366 -359 -680 -598 -894 -682
-56 -21 -86 -27 -159 -27 -79 -1 -97 2 -147 27 -76 37 -143 112 -166 186 -13
42 -17 90 -17 191 1 115 5 150 28 235 34 123 64 205 134 362 l55 122 37 -18
c20 -10 72 -30 116 -44 386 -122 763 0 1248 401 162 135 571 550 664 675 303
407 354 836 147 1249 -23 48 -55 106 -70 130 -104 166 -319 392 -446 471 -211
132 -534 210 -793 193 -350 -24 -648 -159 -895 -406 -376 -374 -639 -810 -731
-1209 -26 -111 -36 -357 -20 -472 16 -106 70 -272 121 -367 85 -157 222 -316
381 -444 l88 -70 -22 -45 c-20 -41 -43 -59 -252 -198 -380 -252 -726 -451
-902 -519 -396 -153 -657 -116 -758 108 -49 107 -68 291 -46 443 l9 62 300
318 c164 175 314 335 332 356 l33 38 -24 25 c-13 14 -36 34 -50 45 l-26 18
-184 -197 c-250 -267 -544 -576 -719 -755 -114 -117 -163 -159 -228 -198 -317
-188 -611 -282 -802 -258 -215 27 -342 198 -365 491 l-7 83 138 115 c357 296
924 815 1564 1434 96 93 188 182 205 197 l29 29 -44 45 c-24 25 -48 45 -53 45
-5 0 -129 -116 -275 -258 -932 -902 -1659 -1543 -1958 -1724 -152 -93 -597
-156 -784 -112 -242 57 -319 272 -215 602 l24 77 162 119 c189 141 417 329
582 483 130 121 429 430 623 644 267 295 483 469 784 632 252 136 584 245 890
292 161 25 495 31 664 11 245 -28 263 -24 379 88 241 233 845 613 1832 1154
171 93 371 206 445 252 168 102 529 281 715 353 340 133 650 215 955 252 130
16 437 18 550 5z m12051 -507 c75 -1543 107 -2509 89 -2691 -37 -370 -225
-760 -508 -1054 l-55 -57 11 -56 12 -56 -163 -173 c-89 -95 -163 -172 -164
-172 -1 1 22 67 51 146 112 305 171 499 160 518 -14 21 -57 28 -71 10 -5 -7
-43 -110 -83 -228 -123 -363 -210 -584 -263 -667 -17 -28 -81 -109 -141 -180
-59 -70 -148 -181 -197 -246 -49 -65 -89 -115 -89 -111 0 58 180 1005 205
1082 10 30 -16 8 -41 -35 -243 -420 -728 -1133 -894 -1313 l-50 -55 7 80 c5
44 8 161 8 260 0 156 -2 185 -19 218 -20 41 -38 54 -80 59 l-28 3 -44 -155
c-149 -522 -308 -898 -435 -1028 -31 -32 -32 -35 -19 -59 25 -44 46 -51 74
-24 118 111 282 467 415 901 l50 165 0 -110 c1 -60 -8 -177 -19 -260 -11 -82
-20 -158 -20 -167 0 -23 46 -24 97 -3 102 43 350 360 687 879 64 98 116 175
116 171 0 -4 -18 -112 -41 -239 -44 -250 -149 -902 -149 -926 0 -28 18 7 79
155 35 83 81 182 103 220 115 198 411 562 765 941 71 75 145 155 166 178 l38
41 -5 -175 c-24 -956 -858 -2921 -2269 -5349 l-171 -293 -17 48 c-36 106 -73
169 -251 434 -1207 1792 -1995 3598 -2142 4910 -17 150 -32 388 -23 380 28
-27 275 -324 295 -355 13 -22 52 -69 86 -105 115 -120 376 -469 476 -636 44
-72 97 -184 176 -373 8 -19 17 -32 19 -29 10 9 -139 1089 -161 1173 -3 11 20
-20 52 -70 246 -383 478 -705 604 -838 86 -91 127 -117 185 -117 l38 0 -7 73
c-17 175 -24 347 -17 412 5 39 9 62 10 52 2 -31 137 -429 196 -577 62 -157
155 -349 210 -436 38 -58 112 -144 126 -144 4 0 19 15 33 33 l26 34 -41 44
c-138 148 -329 605 -492 1174 l-15 50 77 -23 c42 -13 94 -32 116 -41 52 -21
219 -19 290 4 145 47 236 67 315 70 47 2 92 4 100 5 8 1 69 1 135 0 139 -2
195 14 337 96 82 46 103 61 283 188 115 82 268 186 322 219 49 31 197 200 244
280 52 87 82 139 108 188 13 24 49 71 81 104 31 33 83 98 115 145 32 47 75
108 95 135 48 64 118 195 164 307 53 128 70 288 63 567 -6 211 -1 278 33 411
14 57 38 200 45 272 l6 66 63 37 c246 144 385 381 432 739 12 92 15 174 11
343 -3 159 -1 223 7 226 7 3 4 16 -9 38 -18 31 -20 52 -20 204 1 120 6 197 18
260 25 128 59 266 65 261 2 -3 12 -175 23 -383z m-5779 138 c17 -88 22 -155
22 -276 l1 -160 -33 -50 c-31 -47 -32 -50 -12 -53 19 -3 20 -8 14 -110 -12
-197 24 -458 91 -658 83 -250 210 -432 375 -540 64 -41 66 -44 106 -140 47
-112 117 -346 133 -445 7 -39 11 -216 11 -430 0 -433 2 -442 94 -553 23 -28
102 -111 177 -185 75 -75 145 -150 157 -166 11 -17 57 -60 102 -95 178 -140
252 -215 296 -300 23 -43 55 -96 71 -117 16 -21 42 -55 56 -75 17 -23 63 -58
124 -94 89 -52 158 -95 283 -177 41 -26 98 -100 92 -120 -5 -17 31 -69 60 -87
29 -17 30 -20 12 -25 -54 -18 -67 -28 -86 -71 -27 -63 -39 -210 -29 -375 5
-74 7 -135 6 -137 -6 -6 -142 155 -226 268 -158 210 -413 598 -653 993 -43 71
-80 126 -82 124 -2 -2 12 -75 31 -163 52 -235 172 -960 161 -971 -1 -2 -27 32
-56 75 -76 110 -223 302 -368 481 -108 134 -130 167 -164 250 -61 148 -150
472 -182 662 -4 21 -13 42 -21 49 -20 16 -62 5 -70 -19 -7 -22 42 -261 89
-431 19 -69 33 -126 32 -128 -2 -1 -37 37 -79 85 l-76 88 -1 76 c0 69 -2 78
-26 100 -50 46 -178 204 -237 294 -161 244 -260 511 -287 777 -12 107 -4 700
20 1638 5 195 15 579 21 854 8 290 16 489 21 476 5 -12 18 -75 30 -139z m-303
-146 c-31 -1084 -42 -1671 -43 -2190 -1 -591 -1 -602 22 -704 46 -206 121
-404 221 -580 l49 -86 7 -180 c3 -99 13 -274 21 -389 7 -115 12 -211 10 -213
-1 -2 -31 29 -64 69 -321 381 -765 391 -1208 28 l-70 -58 -12 126 c-14 151
-33 232 -77 329 -43 93 -101 155 -183 195 -60 30 -73 33 -156 31 -61 0 -112
-7 -153 -21 l-62 -19 9 21 c101 260 1286 2999 1540 3561 67 149 129 287 138
308 8 20 16 36 17 35 0 -2 -2 -120 -6 -263z m6472 -32 c355 -789 1576 -3620
1565 -3630 -2 -3 -25 3 -50 11 -203 69 -375 22 -471 -129 -64 -100 -102 -239
-114 -417 l-6 -97 -60 50 c-210 175 -408 259 -612 259 -198 0 -373 -85 -534
-259 l-74 -79 11 131 c7 73 18 256 24 407 l13 275 47 90 c106 200 185 444 211
650 23 185 6 841 -56 2220 -38 844 -38 822 -25 803 6 -10 65 -138 131 -285z
m3659 -303 c266 -18 563 -78 606 -122 12 -13 561 -619 1219 -1348 1152 -1275
1205 -1335 1388 -1580 307 -411 543 -708 757 -952 66 -74 82 -101 112 -180
106 -277 117 -500 30 -591 -50 -53 -98 -70 -204 -75 -170 -7 -318 32 -540 145
-230 116 -466 289 -737 537 -248 228 -235 209 -661 926 -211 355 -384 647
-386 649 -5 6 -108 -55 -111 -65 -2 -6 168 -297 377 -648 248 -418 380 -648
380 -666 0 -37 -36 -146 -65 -196 -31 -53 -83 -99 -130 -114 -51 -17 -109 -6
-201 39 -168 81 -321 223 -474 436 -421 589 -721 1075 -846 1369 -24 55 -47
101 -51 101 -25 0 -106 -30 -110 -41 -11 -28 109 -283 243 -515 98 -170 255
-417 402 -634 l116 -170 0 -185 c-1 -257 -36 -403 -117 -489 -85 -89 -218 -82
-411 23 -224 122 -457 297 -627 472 -255 263 -413 529 -691 1169 -38 87 -70
161 -72 163 -2 1 -29 -9 -61 -23 -52 -22 -57 -27 -51 -50 12 -48 219 -503 305
-670 95 -186 185 -335 273 -453 62 -83 75 -120 103 -311 35 -231 4 -378 -86
-408 -107 -35 -333 88 -784 427 -263 198 -244 176 -398 475 -205 397 -416 757
-628 1070 -85 125 -97 153 -352 745 -146 338 -283 657 -305 708 -46 105 -49
98 50 126 276 79 777 93 1282 35 98 -11 180 -18 182 -16 2 2 -23 61 -57 132
-70 148 -71 164 -11 265 63 106 187 206 382 309 192 100 413 163 638 180 153
12 162 12 322 1z m-13590 -11 c233 -21 430 -76 616 -173 263 -137 417 -286
431 -420 4 -34 -4 -60 -51 -159 l-55 -118 182 8 c315 14 902 8 1072 -11 176
-19 301 -47 297 -65 -1 -7 -158 -374 -347 -815 l-345 -803 -338 -544 c-186
-299 -359 -583 -385 -631 -31 -57 -65 -102 -100 -134 -79 -71 -352 -273 -537
-397 -200 -134 -309 -188 -395 -194 -55 -5 -64 -3 -93 22 -21 17 -37 44 -47
78 -20 66 -20 228 0 343 28 161 42 203 94 273 129 176 214 321 335 573 77 158
256 560 256 574 0 10 -113 55 -121 47 -4 -4 -46 -98 -94 -208 -117 -269 -270
-576 -354 -710 -235 -374 -509 -632 -916 -864 -118 -67 -185 -92 -267 -98 -55
-5 -74 -2 -112 17 -122 58 -184 265 -174 576 l5 149 174 260 c96 143 219 334
273 425 169 280 330 611 309 630 -10 10 -113 43 -118 39 -1 -2 -19 -44 -40
-94 -108 -265 -429 -788 -819 -1335 -159 -224 -250 -317 -411 -425 -215 -144
-347 -130 -436 46 -15 32 -36 86 -44 122 l-17 64 386 648 c212 356 386 649
386 650 0 11 -113 66 -120 59 -4 -5 -181 -299 -392 -654 -425 -716 -399 -679
-658 -918 -409 -378 -807 -618 -1117 -672 -42 -8 -109 -11 -162 -8 -75 5 -99
10 -143 35 -63 35 -103 101 -114 190 -9 76 15 220 62 364 36 113 37 115 119
199 215 223 541 601 860 995 120 149 239 295 265 325 830 983 1726 2027 2169
2530 105 119 96 115 311 159 115 25 204 37 390 54 80 8 222 6 330 -4z m19327
-150 c757 -261 1486 -636 2006 -1031 15 -11 -13 -13 -180 -14 -109 0 -242 -6
-296 -13 l-98 -12 -68 64 c-198 186 -621 485 -1241 875 -302 191 -286 181
-278 181 3 1 73 -22 155 -50z m-25328 37 c-2 -2 -92 -56 -199 -121 -389 -234
-812 -526 -968 -670 l-72 -67 -138 11 c-75 6 -152 12 -171 14 -32 2 -30 5 85
88 400 291 831 520 1319 700 119 44 155 56 144 45z m24471 -676 c262 -32 507
-148 708 -335 82 -76 233 -272 340 -440 74 -117 197 -343 190 -350 -2 -2 -28
27 -56 65 -132 172 -305 289 -527 356 -82 25 -105 28 -260 28 -209 1 -282 -16
-460 -104 -367 -182 -603 -539 -646 -976 -20 -204 18 -435 101 -611 l41 -88
-46 45 c-124 119 -412 468 -517 625 -336 501 -297 978 116 1404 198 203 341
295 541 346 171 43 318 54 475 35z m-23130 -87 c201 -33 394 -117 519 -226
153 -133 311 -338 391 -511 120 -254 126 -519 19 -779 -36 -87 -94 -187 -164
-282 -135 -183 -508 -554 -744 -738 l-61 -48 55 73 c110 145 190 335 221 523
19 121 15 351 -10 463 -34 157 -104 321 -189 446 -50 74 -174 205 -248 262
-374 288 -891 286 -1248 -5 -67 -54 -62 -45 64 124 153 204 313 377 435 467
285 213 606 290 960 231z m13470 -561 c0 -23 -45 -239 -71 -337 -18 -67 -22
-126 -29 -370 -5 -165 -15 -329 -23 -380 -16 -97 -77 -250 -145 -362 -71 -118
-211 -308 -262 -358 -28 -27 -62 -71 -76 -97 -13 -26 -29 -50 -35 -53 -6 -4
-19 -26 -30 -49 -48 -103 -199 -294 -273 -344 -22 -16 -95 -66 -161 -112 -66
-46 -147 -101 -180 -123 -33 -22 -71 -50 -85 -62 -14 -13 -63 -42 -110 -66
l-85 -43 -150 -1 c-253 -3 -302 -8 -425 -44 -63 -18 -135 -37 -160 -42 -47
-10 -140 -2 -140 12 0 14 -34 27 -111 43 -118 25 -174 58 -211 123 -30 54 -37
59 -178 149 -86 54 -240 144 -248 144 -23 0 -131 135 -192 241 -48 84 -151
186 -286 284 -38 27 -85 67 -104 88 -19 21 -115 119 -212 218 -220 224 -220
224 -218 439 2 199 -6 517 -15 620 -7 85 -89 361 -129 438 -10 19 -15 36 -13
39 3 2 40 0 83 -6 44 -6 183 -20 309 -31 127 -12 274 -28 327 -36 54 -7 102
-14 106 -14 5 0 12 -57 15 -127 9 -183 50 -333 107 -398 17 -19 17 -25 -8
-130 -14 -60 -30 -113 -35 -116 -6 -4 -6 -15 -2 -25 5 -11 7 -25 6 -32 -3 -19
18 -42 40 -42 26 0 53 -58 73 -155 9 -46 23 -86 34 -95 9 -9 22 -25 28 -35 12
-22 54 -33 54 -15 0 20 42 -1 112 -56 48 -37 83 -55 118 -63 28 -6 64 -18 80
-26 16 -8 40 -15 52 -15 13 0 50 -9 82 -21 36 -12 86 -20 130 -21 39 -1 88 -7
110 -15 44 -15 183 -18 219 -4 16 6 49 5 96 -5 78 -14 153 -9 187 13 19 12 27
10 72 -13 66 -34 96 -27 166 37 41 37 62 49 85 49 18 0 55 12 84 27 79 40 230
83 271 76 29 -4 37 -1 51 20 18 29 75 52 116 48 19 -2 33 6 48 25 11 15 21 31
21 36 0 5 13 20 28 33 49 41 99 160 114 269 5 39 18 85 29 103 11 18 16 33 10
33 -6 0 -11 7 -11 15 0 24 -29 30 -45 9 -13 -18 -14 -18 -19 6 -3 14 -7 43 -8
65 -3 36 1 43 37 70 72 55 130 201 151 376 l6 56 137 32 c159 37 309 64 485
86 69 9 138 20 153 25 43 13 53 11 53 -8z m-1466 -702 c14 -5 26 -17 26 -26 0
-10 7 -25 15 -34 18 -19 30 -115 21 -164 -5 -25 -12 -36 -25 -36 -15 0 -19 14
-28 88 -10 87 -42 161 -70 162 -6 0 -15 5 -18 10 -8 13 46 13 79 0z m-1303
-27 c37 -27 39 -30 32 -68 -3 -22 -6 -67 -5 -101 1 -53 -2 -64 -29 -97 -25
-31 -35 -36 -57 -31 -15 3 -40 20 -56 36 -26 28 -28 35 -22 82 19 157 19 176
3 176 -9 0 -18 -8 -20 -17 -3 -10 -15 -61 -27 -113 -29 -119 -40 -151 -51
-144 -5 3 -9 25 -9 48 0 24 -7 62 -15 85 -20 57 -8 125 23 129 12 2 22 8 22
13 0 5 24 10 53 10 42 1 87 8 115 18 2 0 21 -11 43 -26z m1568 5 c1 -7 4 -44
7 -83 5 -79 -8 -104 -61 -122 -54 -18 -54 -37 -2 -86 46 -43 47 -45 47 -104 0
-59 -1 -61 -30 -72 -27 -9 -30 -8 -30 12 0 37 -30 168 -45 198 -8 15 -15 30
-15 32 0 2 21 13 48 25 85 40 87 43 73 109 -22 100 -22 103 -8 103 8 0 15 -6
16 -12z m-504 -18 c-28 -31 -12 -34 43 -6 42 21 52 23 61 12 7 -8 11 -18 9
-22 -1 -5 7 -27 19 -49 22 -43 38 -148 28 -188 -6 -23 -11 -25 -59 -24 l-53 2
-22 70 c-12 39 -31 87 -41 108 -10 20 -14 37 -9 37 15 0 10 28 -8 38 -14 8
-12 12 13 25 38 21 41 21 19 -3z m-295 -95 c19 -56 43 -118 53 -138 11 -23 17
-54 15 -80 l-3 -42 -50 -3 c-27 -1 -72 -5 -98 -8 -26 -3 -64 -3 -83 1 l-36 6
7 127 c7 121 9 127 36 155 16 16 29 32 29 37 0 13 63 50 80 47 9 -1 28 -41 50
-102z m19380 -199 c188 -159 558 -525 701 -696 424 -504 716 -991 918 -1529
213 -569 230 -908 69 -1399 -190 -580 -588 -1029 -1148 -1298 -74 -36 -169
-83 -210 -105 -380 -202 -606 -284 -925 -335 -147 -24 -436 -24 -595 -1 -329
48 -853 49 -1330 1 -929 -92 -1813 -340 -2637 -739 -235 -114 -398 -203 -538
-294 -348 -226 -850 -418 -1315 -500 -771 -138 -1518 -69 -2360 217 -976 332
-1824 835 -2430 1442 -152 152 -291 312 -375 433 -27 40 -115 151 -195 247
-389 467 -807 1042 -1001 1376 -13 23 -43 72 -66 110 -151 252 -311 595 -367
785 -12 44 -328 801 -475 1143 -12 27 -20 50 -18 52 2 2 84 -153 181 -345 98
-192 242 -468 322 -614 93 -171 144 -275 144 -294 0 -82 588 -1024 948 -1518
286 -392 658 -831 714 -842 16 -3 33 -14 38 -24 26 -48 535 -503 800 -716 661
-529 1349 -914 1905 -1067 149 -40 199 -50 382 -71 764 -88 1664 -66 2283 56
544 107 942 271 1277 526 227 173 396 279 624 393 410 206 839 343 1329 424
307 51 409 57 892 50 454 -7 683 1 973 32 822 88 1552 322 2115 676 319 201
476 350 585 553 21 39 64 111 95 160 149 234 169 294 192 571 18 230 -11 513
-82 786 -68 262 -238 697 -295 755 -18 18 -61 86 -97 151 -271 494 -659 995
-1188 1536 l-215 220 110 -89 c61 -49 180 -148 265 -219z m-20466 288 c12 -5
13 -10 5 -27 -10 -18 -9 -56 3 -176 5 -38 -23 -48 -72 -26 l-41 18 25 24 c29
27 30 30 16 103 -9 46 -8 56 7 71 19 19 33 22 57 13z m-18465 -172 c-598 -611
-1011 -1155 -1279 -1683 -257 -506 -383 -906 -409 -1301 -17 -251 20 -568 77
-667 44 -78 178 -272 248 -361 100 -127 374 -394 492 -480 615 -450 1406 -698
2419 -760 194 -11 711 -12 908 -1 360 21 938 -71 1415 -224 177 -57 429 -159
591 -240 241 -121 403 -222 621 -387 222 -168 424 -278 688 -376 558 -207
1362 -307 2207 -274 548 22 872 59 1103 128 768 227 1708 835 2550 1651 78 75
157 144 175 153 51 23 280 284 518 587 319 409 708 996 1036 1564 72 126 101
185 101 209 0 23 37 101 129 269 71 130 196 367 278 526 125 245 220 412 200
355 -3 -8 -98 -235 -212 -505 -115 -269 -228 -548 -252 -619 -53 -156 -106
-283 -186 -441 -83 -166 -192 -357 -216 -379 -11 -10 -18 -22 -16 -26 6 -10
-177 -296 -315 -495 -204 -293 -460 -626 -729 -951 -69 -84 -160 -198 -202
-255 -194 -265 -541 -600 -884 -854 -580 -431 -1313 -796 -2060 -1025 -927
-284 -1803 -299 -2640 -45 -273 83 -609 234 -823 371 -171 108 -235 144 -482
268 -879 440 -1792 697 -2810 791 -91 9 -316 18 -500 22 -347 6 -554 -3 -758
-34 -144 -21 -423 -20 -567 1 -151 23 -339 70 -470 118 -130 47 -328 140 -406
190 -31 20 -105 57 -165 83 -694 300 -1181 833 -1384 1516 -83 280 -90 464
-27 689 294 1043 963 2031 1907 2818 96 80 198 165 225 189 28 23 52 42 54 43
2 0 -65 -71 -150 -158z m18975 142 c3 -8 11 -68 17 -133 10 -104 9 -121 -5
-149 -29 -57 -97 -39 -135 35 -10 19 -8 28 11 53 20 28 21 35 11 83 -6 28 -8
66 -6 83 4 26 8 30 28 26 13 -2 31 1 42 7 25 14 30 14 37 -5z m773 -2 c-15 -9
-26 -19 -24 -22 26 -48 59 -129 75 -182 22 -74 17 -91 -30 -102 -47 -11 -63 3
-64 59 -1 34 -14 80 -42 145 l-41 95 60 6 c32 3 62 9 66 12 3 4 11 7 17 7 6 0
-1 -8 -17 -18z m-507 -22 c38 -41 43 -72 35 -201 l-7 -109 -64 0 c-101 0 -166
37 -134 75 12 14 9 100 -6 176 -4 23 1 29 58 57 35 17 69 31 76 32 8 0 27 -14
42 -30z m949 -325 c17 -88 13 -107 -21 -116 -28 -7 -28 -7 -28 41 0 68 -9 103
-34 135 l-23 29 -36 -23 -36 -22 25 -36 c31 -46 35 -150 7 -160 -15 -5 -92
-39 -116 -51 -4 -2 -2 8 4 21 9 19 9 34 0 58 -6 17 -11 42 -11 55 0 25 -29 94
-40 94 -3 0 -13 -6 -22 -12 -14 -12 -15 -21 -2 -93 8 -44 12 -94 9 -111 -5
-27 -10 -32 -39 -36 -33 -4 -34 -3 -56 65 -12 38 -19 75 -16 83 3 8 2 14 -3
14 -5 0 -11 11 -13 25 -5 22 0 26 31 35 20 5 47 17 61 27 15 11 52 20 95 24
54 4 80 12 110 32 22 15 51 27 65 27 14 0 32 4 40 10 18 11 32 -19 49 -115z
m-1581 56 c12 -11 22 -25 22 -31 0 -6 -10 -20 -22 -30 -21 -17 -23 -27 -23
-114 0 -69 -3 -96 -12 -96 -7 0 -10 6 -7 14 3 7 -4 31 -15 53 -12 21 -24 67
-27 101 -9 81 6 112 56 121 3 0 15 -8 28 -18z m166 -17 c3 -9 -3 -31 -14 -49
-24 -39 -26 -129 -5 -190 8 -21 12 -41 10 -43 -2 -2 -19 1 -37 7 -26 8 -40 23
-56 56 -26 53 -29 110 -7 119 11 4 13 16 9 49 l-6 43 38 11 c56 15 61 15 68
-3z m20038 -161 c86 -93 208 -229 272 -303 l115 -135 -60 -8 c-173 -22 -271
-147 -241 -308 30 -160 180 -357 315 -414 45 -19 127 -19 170 -1 43 18 107 91
148 171 l33 63 52 -76 c57 -86 189 -308 200 -337 7 -17 0 -18 -154 -12 -264
11 -481 46 -714 113 -143 42 -186 43 -227 8 -36 -30 -54 -87 -42 -130 4 -16
63 -139 131 -274 487 -972 799 -1814 800 -2160 0 -32 8 -72 19 -96 l19 -41
-92 -60 c-50 -34 -95 -63 -101 -66 -6 -3 -10 51 -11 151 -1 244 -34 467 -103
704 -177 609 -594 1204 -1159 1656 -158 126 -195 141 -269 106 -27 -14 -42
-33 -71 -93 -85 -174 -255 -296 -527 -377 -151 -46 -422 -84 -593 -84 -85 0
-124 -16 -152 -63 -27 -44 -25 -74 11 -170 86 -225 229 -509 322 -639 58 -83
148 -172 206 -206 45 -26 52 -27 246 -33 232 -8 338 -26 540 -93 407 -136 830
-414 1232 -809 67 -66 134 -126 149 -132 26 -10 21 -14 -137 -92 -752 -370
-1704 -546 -2734 -504 -207 8 -329 8 -425 1 -739 -57 -1467 -276 -2042 -617
-148 -87 -204 -124 -383 -258 -177 -131 -246 -175 -381 -243 -407 -204 -955
-329 -1636 -373 -209 -13 -946 -7 -1143 10 -265 24 -482 52 -584 77 -602 148
-1342 572 -2090 1198 -248 206 -531 468 -531 490 0 13 196 0 264 -19 86 -23
176 -68 259 -131 61 -46 78 -54 115 -54 69 0 95 20 148 115 126 225 285 364
463 405 80 19 228 7 324 -24 154 -51 345 -164 472 -279 33 -30 70 -59 82 -65
53 -28 146 -2 173 49 29 53 19 84 -394 1229 -224 619 -415 1136 -424 1150 -10
14 -35 33 -55 43 -36 18 -40 18 -130 -1 -156 -34 -279 -45 -436 -39 -177 7
-268 28 -398 93 -114 58 -149 57 -218 -4 -92 -81 -263 -152 -456 -189 -146
-28 -563 -25 -759 6 -198 30 -433 81 -630 137 l-166 47 -28 51 c-87 155 -265
490 -262 493 2 2 68 -42 147 -98 374 -267 552 -359 689 -359 108 0 200 64 242
168 20 52 23 74 23 234 0 202 -12 189 94 95 223 -199 588 -419 751 -453 142
-30 280 9 354 100 87 106 146 313 146 515 l0 54 68 -91 c112 -150 313 -320
457 -387 134 -62 255 -71 350 -25 86 42 172 152 206 267 l12 42 116 -111 c437
-420 831 -673 1188 -764 139 -35 314 -39 407 -9 119 38 198 118 233 234 21 70
21 237 0 334 l-15 67 142 -137 c320 -312 587 -510 788 -585 67 -25 103 -32
188 -36 94 -4 113 -2 184 22 43 15 103 43 133 62 230 153 279 484 135 901
l-38 110 163 -108 c209 -140 528 -332 685 -412 132 -67 305 -128 431 -152 98
-19 276 -19 343 -1 226 60 352 248 371 554 l6 103 131 -129 c143 -140 197
-176 439 -292 569 -272 963 -191 1097 226 16 50 32 122 36 158 4 36 9 66 11
66 3 0 35 -22 72 -48 139 -102 195 -129 329 -161 227 -55 305 -65 482 -65 154
0 170 1 244 27 157 55 243 143 282 289 17 66 18 213 1 295 -9 42 -10 60 -3 54
144 -112 342 -244 436 -291 84 -43 229 -68 425 -76 282 -12 443 46 511 182 31
62 26 215 -9 318 -40 114 -108 245 -195 376 -42 63 -78 118 -80 122 -2 4 19 5
46 1 88 -10 171 36 213 120 28 53 49 157 49 240 0 37 1 67 3 67 2 0 73 -75
159 -167z m-19936 97 c29 0 65 5 80 10 22 9 31 7 49 -10 11 -11 42 -23 68 -26
40 -6 45 -9 35 -21 -7 -8 -12 -49 -13 -95 -2 -85 -11 -103 -50 -92 -39 12 -45
25 -45 101 0 110 -26 142 -69 87 -28 -35 -30 -176 -4 -214 16 -22 16 -23 -1
-17 -10 4 -24 7 -32 7 -9 0 -12 5 -9 10 4 6 -7 26 -23 44 -41 47 -88 187 -72
217 9 15 15 18 23 10 6 -6 35 -11 63 -11z m787 -7 c15 -55 28 -156 23 -175 -3
-13 -19 -38 -34 -56 -26 -31 -30 -33 -55 -21 -24 11 -31 10 -57 -9 -50 -38
-65 -26 -20 16 35 34 40 44 40 83 -1 24 -7 69 -14 101 l-14 56 47 10 c69 14
79 14 84 -5z m-19658 -73 c-17 -77 -19 -171 -5 -222 6 -20 26 -50 46 -67 30
-27 43 -31 89 -31 112 0 211 60 476 287 53 46 100 83 103 83 4 0 -13 -26 -37
-57 -138 -180 -270 -424 -307 -567 -41 -161 -21 -277 64 -361 92 -92 212 -122
456 -111 270 11 381 39 529 133 51 33 53 33 47 11 -14 -44 -19 -273 -7 -327
28 -129 112 -239 223 -291 108 -50 178 -64 333 -63 153 1 268 16 465 64 136
33 195 61 325 154 42 31 79 54 81 52 2 -2 11 -42 19 -90 49 -284 191 -454 420
-502 189 -40 431 12 725 156 251 122 314 165 441 301 l114 122 6 -121 c11
-200 65 -340 169 -437 161 -149 399 -166 745 -54 182 58 538 253 909 495 87
57 156 98 154 91 -17 -43 -59 -206 -74 -283 -24 -119 -24 -308 -1 -393 38
-140 121 -249 237 -311 275 -147 577 -36 1095 404 66 56 157 136 201 178 l80
75 -14 -76 c-19 -109 -11 -260 18 -337 31 -80 105 -154 185 -185 73 -29 265
-39 372 -20 350 61 810 344 1245 768 69 68 128 119 131 115 2 -4 12 -31 21
-60 10 -28 34 -78 55 -110 110 -171 281 -206 496 -103 152 73 356 246 459 390
l63 89 6 -127 c12 -273 94 -450 243 -523 57 -28 74 -32 147 -32 48 0 107 7
142 17 168 49 507 263 731 463 l85 75 -7 -38 c-15 -75 -9 -285 9 -345 41 -138
124 -204 251 -203 133 1 254 57 531 245 104 72 219 151 255 177 l64 47 -63
-120 c-35 -66 -103 -192 -152 -281 l-88 -161 -170 -47 c-436 -122 -792 -174
-1116 -163 -320 11 -558 78 -709 202 -85 69 -116 70 -237 11 -99 -48 -168 -69
-284 -86 -144 -20 -350 -8 -535 32 -103 22 -150 17 -184 -21 -19 -20 -846
-2302 -846 -2333 0 -72 66 -132 140 -125 40 3 58 14 140 83 155 129 301 216
455 269 114 39 274 46 372 17 73 -23 165 -77 232 -138 56 -50 149 -174 200
-268 47 -84 76 -106 138 -106 39 0 56 9 134 68 114 87 243 132 402 139 64 3
117 3 117 1 0 -8 -295 -278 -430 -395 -780 -674 -1572 -1139 -2203 -1293 -120
-30 -344 -59 -632 -82 -216 -18 -1031 -18 -1220 0 -656 61 -1132 176 -1509
364 -136 68 -229 127 -376 239 -660 502 -1470 797 -2415 880 -98 8 -212 8
-470 -1 -1292 -46 -2303 189 -3032 707 l-63 44 15 29 c8 16 15 52 15 80 0 386
387 1309 1016 2420 51 91 96 177 99 192 10 38 -11 93 -46 123 -41 34 -80 32
-241 -9 -243 -63 -456 -98 -713 -116 -152 -11 -324 -11 -367 -1 l-28 6 74 121
c40 67 87 142 105 168 l32 47 30 -58 c92 -181 201 -234 340 -166 104 51 237
211 281 337 21 61 23 174 5 219 -36 83 -124 143 -230 155 l-61 7 111 130 c121
143 363 408 368 403 2 -2 -3 -32 -10 -68z m19302 55 c3 -9 -2 -24 -11 -34 -12
-13 -16 -38 -16 -104 0 -101 -11 -110 -51 -44 -41 64 -56 98 -62 139 -6 37 -5
37 31 43 20 4 42 8 47 10 26 9 56 4 62 -10z m182 -160 c0 -37 -59 -108 -86
-103 -23 4 -39 105 -24 151 6 16 11 47 11 68 0 36 1 38 38 41 l37 3 12 -65 c6
-36 12 -78 12 -95z m-12764 -361 c82 -147 214 -242 371 -266 l77 -12 -69 -18
c-262 -67 -437 -34 -504 97 -22 44 -25 61 -24 155 0 86 6 120 28 190 l28 84
27 -80 c15 -44 45 -111 66 -150z m25466 101 c19 -91 17 -220 -5 -284 -58 -169
-237 -204 -531 -104 l-80 28 90 6 c55 4 112 15 147 28 127 49 242 168 315 328
21 45 41 76 44 70 4 -7 13 -39 20 -72z m-10016 -457 c-2 -35 -10 -133 -15
-218 -13 -182 -45 -485 -65 -620 -8 -52 -24 -158 -36 -235 -66 -442 -196 -970
-340 -1379 l-52 -148 -63 -46 c-35 -25 -64 -49 -64 -53 0 -4 12 -22 27 -39 32
-39 33 -39 -76 -265 -96 -197 -621 -1178 -1574 -2935 -231 -426 -431 -799
-444 -828 -69 -155 -146 -421 -182 -632 -103 -588 -10 -1152 262 -1589 105
-170 396 -483 597 -642 429 -341 937 -564 1387 -610 133 -14 433 -6 598 16
404 53 806 169 1203 347 l113 51 242 -22 c858 -76 1487 -80 2042 -10 259 32
500 86 635 144 30 12 132 55 225 94 205 87 549 255 700 343 409 238 695 456
1005 767 252 252 426 473 596 756 311 518 500 1137 521 1708 3 86 6 157 7 157
1 0 37 -13 81 -29 l80 -29 7 -45 c36 -253 7 -640 -73 -966 -215 -876 -806
-1691 -1729 -2386 -136 -102 -182 -130 -375 -225 -600 -297 -1240 -479 -1945
-556 -202 -21 -676 -30 -881 -15 -282 21 -580 64 -825 120 l-80 18 -70 -39
c-148 -85 -425 -200 -639 -266 -1065 -329 -2081 -196 -2933 385 -312 212 -566
450 -706 663 -449 680 -451 1630 -6 2577 27 56 53 118 60 138 6 20 92 170 189
333 1092 1828 1944 3582 2300 4737 162 523 229 910 219 1261 l-6 172 42 51
c22 28 42 51 44 51 1 0 0 -28 -3 -62z m-7374 22 c61 -31 114 -129 143 -263 24
-106 24 -467 0 -674 -3 -29 -2 -53 3 -53 4 0 46 51 93 113 300 395 651 593
925 522 188 -49 370 -231 513 -513 38 -74 62 -136 67 -168 l6 -51 -78 -51
c-147 -97 -307 -154 -380 -136 -16 4 -53 34 -86 70 -133 145 -350 193 -669
148 -115 -16 -326 -66 -432 -103 -33 -12 -60 -20 -61 -19 -1 2 -14 29 -28 60
-68 150 -185 277 -311 337 -105 50 -157 62 -276 62 l-99 0 25 57 c13 31 71
167 127 302 l104 245 72 44 c143 86 263 111 342 71z m9300 4 c66 -20 136 -55
209 -104 l55 -38 118 -278 c64 -154 117 -282 117 -286 0 -5 -42 -8 -93 -8
-256 0 -443 -121 -573 -373 -36 -70 -49 -87 -62 -82 -10 3 -69 22 -132 40
-507 150 -889 115 -1034 -94 -34 -49 -70 -58 -159 -42 -60 12 -237 92 -286
130 -23 18 -24 20 -12 95 13 90 65 201 162 346 185 276 404 390 634 331 223
-58 427 -217 637 -498 85 -113 104 -133 106 -113 2 13 -1 96 -7 185 -26 376
-1 594 82 718 55 82 128 103 238 71z m-7401 -199 c2 -1108 494 -2570 1418
-4215 264 -470 574 -971 845 -1365 119 -172 168 -267 192 -367 26 -110 17
-274 -20 -360 -11 -28 -26 -3 -485 839 -260 477 -653 1195 -871 1595 -476 868
-505 925 -609 1195 l-28 71 31 37 c17 21 26 40 20 43 -66 45 -107 81 -115 102
-94 246 -243 865 -312 1295 -54 334 -106 814 -121 1105 -3 63 -8 140 -11 170
l-5 55 36 -40 35 -40 0 -120z m-16773 -547 c-181 -324 -452 -862 -580 -1153
-171 -388 -278 -689 -332 -938 l-17 -78 -25 23 c-44 40 -188 220 -255 318
-102 149 -115 176 -132 280 -68 415 15 848 270 1402 l58 126 225 0 c246 1 461
19 669 56 70 13 133 24 140 25 9 1 1 -22 -21 -61z m39347 -59 c149 -23 415
-39 532 -32 l81 5 51 -123 c113 -276 158 -446 198 -749 21 -153 24 -488 5
-610 -14 -94 -52 -168 -176 -344 -91 -130 -112 -154 -118 -136 -2 8 -21 84
-41 169 -93 386 -307 931 -640 1628 -58 122 -106 224 -106 227 0 2 19 0 42 -6
24 -5 101 -18 172 -29z m-14646 -52 l44 -12 89 -210 c49 -115 109 -270 134
-343 47 -135 121 -313 180 -432 l32 -65 -74 -3 c-135 -4 -267 -64 -390 -176
-97 -89 -223 -260 -292 -395 l-23 -44 -26 44 c-113 192 -293 336 -497 398
-144 44 -385 44 -494 1 -207 -81 -341 -305 -358 -596 l-6 -102 -72 59 c-272
224 -617 301 -957 214 l-27 -7 30 88 c90 262 210 732 270 1055 l22 117 59 -35
c209 -122 457 -138 523 -33 104 165 350 207 724 124 115 -26 302 -83 399 -123
49 -20 53 -20 59 -3 3 9 19 51 35 93 77 206 215 344 381 385 65 16 179 16 235
1z m-10273 -12 c166 -43 299 -189 384 -419 l26 -73 101 38 c250 94 473 142
669 143 119 1 151 -2 211 -21 85 -27 143 -67 190 -133 31 -43 44 -52 92 -66
116 -34 288 5 453 102 57 34 91 49 94 41 2 -7 13 -73 25 -147 49 -310 141
-720 225 -1004 19 -66 33 -122 30 -124 -2 -3 -31 3 -64 12 -145 41 -366 37
-527 -9 -122 -35 -271 -111 -380 -193 l-91 -69 -11 111 c-15 141 -34 211 -82
311 -67 138 -174 235 -304 278 -90 29 -319 28 -430 -2 -214 -57 -405 -200
-518 -385 -18 -31 -36 -56 -39 -56 -4 0 -29 39 -55 87 -27 49 -82 132 -122
185 -158 211 -326 318 -527 335 l-71 6 49 101 c61 125 126 284 162 396 30 92
198 501 221 537 7 12 26 24 41 26 68 10 193 6 248 -8z m23798 -224 c558 -491
931 -1140 1015 -1768 l8 -61 -65 59 c-379 338 -860 614 -1251 718 -168 45
-285 61 -464 67 -138 4 -162 8 -184 24 -39 31 -114 129 -164 216 -41 70 -156
301 -171 345 -4 14 7 17 71 23 324 28 637 124 841 260 66 44 221 196 221 216
0 22 22 6 143 -99z m-10508 -396 c110 -42 237 -65 395 -72 131 -5 200 -1 395
23 l50 6 311 -861 c171 -474 308 -860 305 -858 -3 2 -42 20 -86 41 -399 192
-773 143 -1050 -138 -53 -54 -143 -166 -170 -213 -1 -2 -26 10 -56 27 -182 98
-414 139 -614 107 -82 -13 -92 -13 -109 2 -34 29 -258 294 -377 447 -179 229
-304 404 -504 704 -163 244 -456 711 -451 717 1 2 61 -10 132 -26 137 -31 318
-63 474 -83 148 -19 582 -16 705 5 202 35 388 99 495 170 60 40 56 40 155 2z
m-16427 6 c49 -34 172 -91 260 -121 370 -123 893 -116 1478 20 48 11 89 19 91
16 6 -6 -145 -256 -305 -506 -306 -478 -606 -886 -895 -1220 -74 -85 -138
-154 -143 -153 -258 47 -478 20 -684 -85 l-75 -38 -46 65 c-133 189 -292 310
-484 371 -90 28 -264 38 -372 20 -102 -16 -231 -59 -332 -109 l-81 -41 36 97
c19 54 159 442 311 863 152 421 276 765 277 766 1 1 39 -5 86 -12 287 -43 576
-21 766 59 74 31 80 31 112 8z m13959 -766 c28 -13 72 -42 96 -64 26 -24 51
-39 59 -36 10 4 40 -35 102 -132 232 -367 588 -847 946 -1278 64 -77 149 -185
190 -240 223 -304 622 -693 967 -940 36 -26 43 -38 53 -87 7 -32 11 -95 8
-142 -6 -111 -44 -192 -126 -267 -62 -57 -179 -117 -274 -142 -105 -27 -302
10 -491 93 -104 46 -265 151 -344 224 l-56 52 36 86 c60 140 78 224 84 394 11
292 -49 509 -204 743 -65 99 -208 245 -304 314 -478 338 -1144 293 -1551 -106
-173 -170 -286 -379 -339 -630 -29 -132 -31 -381 -5 -498 77 -353 274 -605
590 -755 162 -76 370 -124 542 -124 63 0 83 -3 88 -15 16 -44 28 -204 23 -325
-9 -219 -59 -367 -164 -480 -143 -155 -399 -183 -624 -69 -269 135 -535 546
-690 1067 -23 75 -45 141 -49 145 -6 7 -107 -16 -128 -29 -1 0 14 -55 34 -120
120 -397 130 -750 25 -916 -65 -102 -148 -134 -325 -125 -277 13 -497 160
-630 422 -60 119 -72 170 -121 521 -26 186 -48 344 -50 350 -2 8 -22 8 -67 2
-34 -6 -64 -11 -65 -11 -1 -1 20 -155 47 -342 l48 -340 -23 -58 c-53 -133
-157 -263 -246 -305 -234 -113 -570 187 -848 758 -44 90 -76 173 -96 249 -16
62 -35 115 -41 118 -6 2 -37 -3 -69 -12 -39 -12 -55 -21 -51 -30 16 -43 108
-404 121 -480 9 -49 19 -160 22 -245 5 -137 3 -166 -16 -240 -37 -147 -97
-217 -211 -246 -265 -68 -549 198 -744 698 -25 64 -46 121 -46 126 0 5 159
303 353 663 639 1182 980 1822 1045 1960 l65 135 71 47 c231 151 469 168 713
52 106 -50 155 -86 279 -207 126 -122 170 -147 257 -148 73 0 128 27 162 79
42 62 47 96 46 273 -2 232 24 346 98 430 49 56 86 69 199 69 115 0 195 -22
291 -78 101 -60 170 -144 246 -298 49 -101 74 -141 106 -168 87 -75 211 -70
286 11 14 15 57 90 95 167 150 300 291 462 437 501 55 15 99 10 168 -21z
m-11387 -12 c119 -58 246 -221 379 -486 64 -127 83 -156 117 -180 85 -60 180
-54 259 15 36 32 59 68 111 174 56 115 75 145 133 202 116 116 238 166 407
166 88 0 105 -3 138 -23 110 -68 166 -248 151 -487 -9 -133 4 -206 45 -263 60
-83 165 -104 270 -55 38 18 81 53 145 118 104 107 144 140 236 190 125 69 233
97 365 97 145 0 263 -38 400 -129 64 -43 73 -52 94 -107 67 -172 204 -439 577
-1120 226 -412 512 -936 637 -1163 l226 -414 -36 -96 c-141 -381 -340 -639
-548 -712 -67 -24 -172 -28 -236 -9 -90 27 -162 123 -191 254 -30 135 -11 394
47 635 31 131 67 371 57 381 -5 4 -33 10 -65 13 -65 8 -56 25 -83 -159 -15
-96 -24 -125 -76 -234 -196 -410 -437 -699 -642 -771 -110 -39 -203 -19 -292
62 -60 54 -131 162 -165 248 l-22 55 48 338 c26 185 44 340 41 344 -7 6 -119
24 -124 20 -1 -1 -22 -151 -47 -332 -52 -373 -61 -416 -116 -527 -56 -111 -93
-162 -175 -243 -132 -131 -278 -193 -470 -202 -139 -7 -201 9 -268 67 -157
139 -168 493 -29 967 19 68 33 125 30 128 -9 10 -118 38 -124 33 -2 -3 -22
-65 -44 -139 -145 -496 -392 -894 -652 -1051 -166 -101 -352 -121 -523 -57
-119 44 -226 180 -276 349 -27 93 -39 393 -20 501 l12 66 117 6 c209 11 379
54 544 139 278 142 467 375 544 673 36 137 44 366 19 516 -86 517 -466 906
-969 994 -112 19 -308 19 -419 0 -445 -78 -807 -383 -956 -807 -100 -287 -90
-614 30 -876 l30 -67 -48 -42 c-225 -199 -533 -333 -762 -333 -121 0 -288 78
-380 176 -79 84 -104 148 -104 269 0 116 14 167 56 196 17 13 86 66 152 118
330 260 648 583 845 856 35 50 110 144 166 210 336 400 696 886 942 1271 65
101 101 149 108 143 7 -5 19 0 34 16 36 38 97 77 153 97 65 23 122 17 197 -19z
m11626 -1337 c361 -76 669 -332 803 -668 59 -145 75 -236 75 -408 0 -169 -10
-229 -64 -368 -41 -107 -65 -139 -43 -57 23 82 23 276 -1 370 -49 198 -193
382 -371 472 -216 110 -471 103 -677 -18 -172 -101 -291 -265 -339 -466 -18
-73 -20 -109 -16 -208 8 -205 74 -354 221 -500 88 -87 199 -152 306 -179 l55
-14 -69 -7 c-39 -4 -113 -5 -167 -1 -513 33 -879 320 -970 761 -22 105 -26
292 -8 405 52 341 272 645 574 795 98 48 232 90 335 105 86 12 267 5 356 -14z
m-11711 -1 c409 -66 732 -355 849 -757 104 -360 29 -730 -200 -976 -73 -79
-178 -159 -269 -205 -117 -59 -331 -117 -429 -117 -29 0 -26 3 39 42 278 167
413 518 323 841 -35 127 -91 222 -192 322 -73 73 -108 99 -176 133 -122 60
-198 75 -350 70 -109 -4 -136 -9 -208 -36 -208 -78 -365 -241 -438 -457 -22
-64 -28 -104 -32 -205 -5 -143 13 -240 68 -360 l30 -65 -40 45 c-89 99 -159
220 -198 340 -63 194 -59 438 10 645 67 203 211 403 387 536 229 173 542 251
826 204z m14171 -1573 c77 -49 184 -115 239 -147 55 -32 102 -59 104 -61 2 -1
-4 -89 -13 -195 -9 -105 -15 -193 -14 -194 2 -1 50 -31 108 -65 436 -262 762
-534 847 -709 l27 -53 -29 -117 c-57 -239 -155 -502 -276 -742 -430 -859
-1219 -1549 -2287 -2000 -81 -34 -180 -77 -220 -95 -174 -81 -449 -141 -824
-180 -208 -21 -885 -30 -1173 -15 -252 13 -545 35 -787 60 l-168 16 -76 -38
c-357 -179 -880 -331 -1299 -377 -155 -17 -459 -14 -573 6 -551 94 -1123 423
-1545 889 -134 149 -210 255 -280 393 -145 285 -209 559 -210 902 0 323 65
665 183 967 31 76 549 1043 560 1043 3 0 23 -42 44 -92 146 -352 362 -603 583
-679 56 -20 88 -24 178 -23 139 0 200 21 284 99 104 97 152 242 154 467 l1
127 54 -82 c113 -169 203 -273 310 -359 233 -185 466 -192 645 -19 34 33 80
89 102 125 22 36 42 65 45 65 3 0 24 -34 48 -77 113 -205 295 -357 505 -421
37 -11 116 -26 176 -32 347 -38 533 116 573 471 l12 107 54 -91 c199 -330 434
-525 683 -565 150 -25 323 -5 431 50 144 72 259 222 308 401 l15 57 60 -81
c145 -195 342 -311 576 -337 99 -11 223 -3 313 20 71 18 211 116 298 208 210
223 232 495 69 827 -35 70 -51 112 -41 108 129 -56 308 -101 439 -111 81 -5
93 -3 196 31 215 72 352 185 414 344 23 57 45 204 37 239 -4 12 -5 23 -2 23 2
0 66 -40 142 -88z m-16856 -132 c53 -192 212 -331 465 -405 86 -25 94 -26 195
-16 118 12 260 48 359 89 l67 29 -52 -101 c-77 -149 -105 -247 -111 -386 -6
-131 8 -203 59 -304 62 -124 183 -246 321 -325 146 -84 448 -82 639 2 131 58
261 166 348 289 l47 67 28 -84 c95 -294 319 -448 625 -431 112 6 190 23 275
61 179 79 370 271 518 522 l54 92 6 -97 c17 -261 127 -425 320 -477 54 -14 91
-17 204 -12 195 7 312 45 463 147 104 71 237 229 296 352 l17 36 47 -71 c64
-97 142 -172 220 -210 56 -28 77 -32 160 -35 81 -3 105 0 162 21 37 13 93 40
124 58 117 71 286 251 392 418 l47 74 6 -139 c7 -155 25 -239 70 -331 113
-233 407 -290 676 -132 164 97 350 351 468 641 l31 78 232 -427 232 -427 -49
-125 c-124 -317 -202 -639 -232 -954 -15 -161 -6 -525 15 -660 32 -196 88
-408 151 -568 5 -12 -28 -47 -122 -131 -491 -440 -982 -738 -1375 -833 -57
-14 -124 -25 -149 -25 -25 0 -95 -7 -155 -17 -167 -25 -497 -22 -684 6 -352
53 -781 191 -1045 336 l-60 33 -180 -18 c-850 -87 -1642 -92 -2190 -14 -233
33 -452 90 -588 153 -34 16 -129 57 -212 92 -607 255 -1138 599 -1554 1004
-469 457 -803 1009 -978 1615 -60 208 -63 244 -29 307 91 167 415 438 806 673
58 35 114 69 125 75 21 13 21 14 5 206 -9 107 -13 195 -9 197 19 8 293 174
379 230 l95 61 6 -82 c3 -45 12 -102 19 -127z m15423 -269 c310 -430 291 -765
-57 -995 -92 -62 -146 -76 -286 -76 -275 0 -512 164 -659 457 -50 100 -129
305 -136 355 l-7 46 54 7 c313 38 536 131 734 302 38 34 85 82 104 107 l35 46
80 -84 c44 -46 106 -120 138 -165z m-13670 -5 c159 -106 347 -174 549 -200 61
-8 112 -17 114 -19 16 -16 -76 -269 -151 -417 -141 -278 -382 -440 -655 -440
-166 0 -260 42 -396 175 -88 86 -124 146 -151 248 -56 219 85 543 365 839 l54
57 91 -93 c51 -51 131 -118 180 -150z m15782 25 c197 -96 293 -139 510 -227
l180 -72 3 -59 c3 -58 -14 -331 -24 -382 -6 -26 -8 -25 -82 52 -140 144 -378
328 -642 493 -97 61 -125 83 -123 99 1 11 5 55 8 98 4 43 10 76 13 75 4 -2 75
-37 157 -77z m-18205 30 c0 -21 3 -65 6 -97 l6 -59 -59 -34 c-98 -58 -362
-239 -473 -325 -57 -44 -152 -128 -211 -186 l-106 -106 -12 126 c-6 69 -11
175 -11 235 l0 110 128 49 c166 63 446 187 597 264 66 34 123 61 128 61 4 1 7
-16 7 -38z m-1030 -598 c71 -1120 645 -2137 1615 -2859 335 -249 736 -473
1200 -670 281 -119 318 -133 443 -164 566 -143 1473 -165 2527 -61 l180 18 99
-49 c334 -167 766 -290 1145 -328 130 -13 432 -13 531 0 41 6 127 15 190 20
219 20 404 76 665 205 318 155 624 368 963 668 68 60 124 108 126 106 1 -2 17
-31 36 -64 18 -33 52 -91 76 -128 24 -37 44 -70 44 -72 0 -8 -207 -191 -301
-266 -392 -313 -802 -521 -1246 -632 -658 -166 -1366 -108 -2073 170 -114 45
-340 154 -409 197 l-36 23 -100 -23 c-146 -34 -426 -80 -615 -101 -206 -22
-823 -26 -1020 -5 -703 74 -1342 248 -1940 530 -234 110 -369 198 -630 411
-799 653 -1312 1392 -1521 2191 -68 262 -106 582 -96 820 10 220 9 216 76 238
37 13 57 15 58 8 1 -6 7 -89 13 -183z"/>
<path d="M21782 13494 c-75 -22 -76 -26 -58 -167 9 -67 20 -207 24 -312 7
-179 10 -194 37 -253 15 -35 36 -67 45 -72 9 -5 61 -12 116 -16 111 -7 171 8
181 46 3 12 22 29 42 39 55 29 74 54 68 93 -6 44 -42 136 -62 158 -8 9 -15 25
-15 36 -1 27 -36 101 -65 136 -14 16 -25 34 -25 40 0 5 -15 33 -34 61 -28 43
-67 135 -90 208 -6 21 -98 22 -164 3z"/>
<path d="M21585 13476 c-80 -25 -104 -43 -116 -89 -7 -27 -38 -75 -88 -137
-158 -194 -193 -261 -206 -390 -6 -73 10 -119 56 -153 29 -21 216 -42 280 -32
84 14 139 77 139 158 0 26 -5 47 -10 47 -6 0 -2 12 9 28 40 55 45 178 11 243
-8 14 -10 46 -6 88 3 36 9 108 12 159 l7 92 -24 -1 c-13 0 -42 -6 -64 -13z"/>
<path d="M35054 9447 c-28 -26 -37 -42 -41 -77 -4 -39 7 -75 92 -290 143 -362
254 -618 376 -868 172 -354 268 -500 344 -521 47 -13 101 2 139 37 17 16 46
37 63 46 46 23 181 53 295 65 127 14 546 14 723 0 77 -6 168 -12 203 -13 61
-1 65 0 98 36 28 31 34 45 34 82 0 111 -163 478 -350 790 -145 240 -347 518
-398 545 -20 11 -86 17 -244 22 -432 15 -815 65 -1107 145 -157 43 -181 43
-227 1z m451 -316 c233 -43 544 -76 827 -87 l176 -7 60 -81 c160 -217 291
-432 409 -671 45 -93 83 -173 83 -176 0 -4 -132 -4 -293 -1 -405 7 -650 -19
-815 -85 -61 -24 -64 -24 -77 -6 -42 56 -247 480 -347 718 -89 212 -168 407
-168 416 0 6 8 8 18 5 9 -3 67 -14 127 -25z"/>
<path d="M38517 9455 c-56 -29 -385 -48 -1052 -60 -369 -7 -381 -9 -410 -65
-46 -90 23 -303 241 -740 153 -305 277 -530 307 -552 61 -47 146 -27 196 45
92 134 296 228 596 274 82 12 182 17 395 17 313 1 316 2 345 62 21 44 19 69
-10 159 -89 270 -247 573 -409 780 -70 90 -132 115 -199 80z m56 -327 c64 -91
158 -257 211 -376 25 -56 46 -104 46 -106 0 -2 -69 -6 -152 -10 -446 -20 -755
-99 -931 -238 -37 -29 -39 -29 -52 -12 -50 69 -355 704 -355 741 0 6 132 12
373 16 411 7 785 28 814 46 1 0 22 -27 46 -61z"/>
<path d="M31492 9283 c-41 -20 -62 -59 -62 -115 0 -118 280 -1121 529 -1896
123 -380 127 -390 165 -413 40 -24 106 -24 154 0 136 69 403 134 627 153 240
20 553 -15 789 -87 97 -29 117 -30 160 -10 41 20 66 62 66 112 0 96 -176 653
-320 1013 -106 264 -246 568 -366 795 -151 283 -140 275 -337 251 -565 -71
-1023 -11 -1227 159 -70 59 -116 69 -178 38z m352 -409 c206 -65 581 -92 904
-63 81 7 158 13 172 13 23 1 34 -17 117 -179 167 -327 301 -633 418 -955 63
-175 156 -462 150 -468 -1 -2 -55 6 -119 17 -384 67 -803 40 -1135 -74 -41
-14 -75 -24 -76 -22 -4 4 -169 526 -233 737 -122 397 -294 1020 -283 1020 3 0
42 -12 85 -26z"/>
<path d="M34710 9158 c-188 -163 -370 -276 -445 -279 -16 -1 -95 9 -175 21
-89 14 -195 23 -275 24 -123 1 -133 -1 -185 -27 -113 -56 -120 -97 -55 -348
198 -775 402 -1298 583 -1491 83 -89 175 -124 243 -94 19 8 73 52 120 98 259
252 597 374 934 338 128 -14 159 -5 196 53 38 60 8 179 -117 469 -175 403
-587 1222 -636 1263 -23 19 -41 25 -78 25 -45 0 -54 -5 -110 -52z m292 -725
c198 -401 283 -582 337 -719 l20 -51 -122 -6 c-299 -14 -594 -137 -843 -353
l-62 -53 -35 53 c-134 201 -305 671 -452 1238 l-34 130 77 -7 c42 -4 129 -15
192 -26 63 -10 144 -19 180 -19 118 0 289 76 450 199 36 28 68 50 71 51 3 0
102 -197 221 -437z"/>
<path d="M3030 10079 c-141 -86 -469 -401 -637 -611 -342 -428 -559 -890 -642
-1372 -28 -159 -43 -352 -39 -489 3 -117 3 -117 36 -149 29 -30 38 -33 92 -33
l59 0 128 131 c143 146 231 225 378 339 317 248 679 427 1002 497 72 15 151
22 303 27 203 6 206 6 258 35 144 80 315 335 470 701 87 205 97 239 83 285 -6
21 -25 50 -42 64 -26 22 -40 26 -97 26 -104 0 -296 19 -417 40 -380 67 -626
210 -728 422 -39 82 -71 108 -134 108 -21 0 -53 -9 -73 -21z m40 -319 c0 -20
143 -159 213 -208 196 -135 481 -227 813 -262 l112 -12 -15 -37 c-34 -83 -136
-282 -183 -358 -28 -46 -76 -110 -107 -143 l-55 -60 -122 0 c-546 0 -1094
-237 -1639 -708 l-108 -93 6 48 c43 303 122 555 264 838 171 340 421 665 705
917 97 86 116 99 116 78z"/>
<path d="M8155 9443 c-254 -76 -710 -137 -1125 -149 -129 -4 -217 -11 -236
-19 -50 -20 -228 -258 -391 -524 -145 -234 -311 -586 -359 -760 -16 -56 -16
-61 2 -97 24 -48 61 -75 105 -77 19 0 108 5 199 13 232 19 633 18 786 -3 142
-20 237 -47 285 -82 77 -56 95 -65 134 -65 22 0 54 9 72 19 118 72 368 572
681 1362 56 140 102 268 102 283 0 41 -26 90 -59 109 -39 23 -99 20 -196 -10z
m-95 -299 c0 -12 -155 -386 -235 -568 -88 -199 -222 -470 -268 -542 l-26 -42
-68 25 c-183 67 -379 87 -797 81 -303 -3 -306 -3 -300 17 3 11 39 88 79 170
85 175 227 414 343 576 134 187 91 165 352 178 124 6 306 21 405 32 168 18
475 66 484 75 7 6 31 5 31 -2z"/>
<path d="M4775 9441 c-91 -55 -317 -428 -424 -699 -93 -236 -99 -288 -42 -346
l31 -31 298 0 c232 -1 320 -5 402 -18 277 -46 456 -123 548 -234 83 -101 85
-103 146 -103 74 0 96 22 182 175 264 476 441 875 460 1037 8 70 -6 110 -50
141 -31 22 -37 22 -486 28 -583 8 -875 25 -932 55 -38 19 -97 17 -133 -5z
m290 -281 c154 -13 631 -30 848 -30 99 0 167 -4 167 -10 0 -32 -232 -518 -337
-707 l-29 -52 -50 36 c-70 50 -214 117 -319 148 -172 50 -448 85 -668 85 -87
0 -88 0 -82 23 16 55 160 332 222 425 65 99 69 103 98 98 17 -3 84 -10 150
-16z"/>
<path d="M11789 9265 c-125 -91 -204 -129 -347 -166 -194 -49 -533 -64 -802
-34 -275 31 -271 31 -307 1 -38 -32 -96 -133 -222 -385 -254 -506 -466 -1060
-586 -1527 -38 -148 -36 -180 12 -226 43 -40 79 -43 175 -14 188 57 364 85
578 93 296 10 558 -35 809 -139 115 -48 166 -48 211 -2 28 29 86 192 235 669
207 659 445 1529 445 1628 0 108 -114 166 -201 102z m-129 -397 c-106 -396
-206 -746 -311 -1088 -71 -230 -200 -632 -205 -641 -2 -4 -32 4 -66 16 -89 32
-253 71 -388 92 -172 26 -509 23 -695 -5 -77 -12 -150 -25 -163 -28 -21 -6
-22 -4 -16 22 4 16 39 128 80 249 126 381 295 784 482 1148 l97 189 55 -6
c386 -44 731 -32 988 35 63 16 122 34 131 39 9 5 17 10 18 10 1 0 -3 -15 -7
-32z"/>
<path d="M8529 9185 c-30 -16 -96 -137 -317 -580 -304 -610 -462 -983 -462
-1093 0 -50 33 -100 77 -119 31 -12 49 -13 110 -4 152 23 327 5 494 -48 179
-58 313 -141 474 -293 l105 -98 57 0 c46 0 69 6 110 30 206 118 426 634 668
1565 64 245 58 288 -53 342 -55 27 -63 28 -197 27 -78 -1 -187 -9 -245 -18
-190 -31 -200 -31 -268 -3 -87 35 -160 81 -256 160 -44 37 -103 85 -129 107
-42 34 -55 40 -95 40 -26 -1 -59 -7 -73 -15z m208 -394 c99 -71 200 -126 288
-156 80 -27 158 -29 290 -7 66 11 159 24 207 28 l86 7 -30 -114 c-154 -586
-322 -1049 -454 -1251 l-37 -56 -67 57 c-245 212 -507 323 -828 352 -129 12
-130 12 -122 35 60 156 550 1174 566 1174 3 0 48 -31 101 -69z"/>
<path d="M30374 4834 c22 -56 20 -60 -60 -139 -76 -75 -252 -220 -387 -320
-37 -27 -67 -55 -67 -63 0 -24 129 -268 206 -389 81 -127 192 -282 286 -400
l59 -74 127 129 c248 252 519 414 785 469 48 9 86 21 85 25 -4 9 -1025 778
-1034 778 -3 0 -3 -7 0 -16z"/>
<path d="M29380 4119 c-212 -198 -559 -341 -940 -389 -46 -5 -111 -10 -143
-10 l-59 0 7 -92 c20 -293 88 -570 222 -913 56 -144 221 -495 232 -495 4 0 67
60 141 133 331 325 632 513 944 587 163 39 325 35 431 -10 27 -11 50 -19 52
-17 5 6 -801 1260 -812 1263 -5 2 -39 -24 -75 -57z"/>
<path d="M24895 3733 c-82 -17 -381 -33 -606 -33 l-186 0 -26 -57 c-66 -152
-90 -290 -90 -518 0 -289 51 -588 155 -923 34 -107 45 -132 57 -127 91 35 327
31 514 -9 139 -30 323 -83 449 -131 51 -19 94 -32 97 -30 16 17 -50 530 -120
923 -50 286 -167 882 -177 902 -6 14 -15 14 -67 3z"/>
<path d="M25645 3689 c-112 -9 -327 -39 -335 -46 -11 -10 -11 -335 0 -438 25
-228 91 -548 171 -823 61 -212 150 -472 162 -472 7 0 28 5 47 10 19 6 80 14
135 20 222 21 569 -33 876 -135 57 -18 105 -32 107 -31 1 2 -126 433 -284 959
l-288 955 -50 6 c-70 8 -419 5 -541 -5z"/>
<path d="M23545 3654 c-330 -48 -743 -71 -886 -49 l-46 7 -26 -71 c-37 -99
-73 -245 -93 -381 -22 -139 -24 -474 -5 -625 13 -103 47 -295 54 -302 2 -2 82
2 176 9 338 23 777 -26 1082 -122 51 -16 95 -27 98 -25 2 3 -10 53 -27 112
-113 390 -156 704 -156 1160 -1 172 -3 312 -6 312 -3 -1 -77 -12 -165 -25z"/>
<path d="M27700 3623 c0 -29 -4 -33 -37 -42 -86 -23 -467 -51 -705 -51 l-126
0 -11 -32 c-33 -104 -40 -310 -16 -470 38 -256 141 -553 298 -858 65 -127 135
-248 148 -255 12 -8 1117 167 1125 178 5 7 -42 245 -71 364 -112 450 -319 878
-552 1140 l-52 58 -1 -32z"/>
<path d="M12561 4472 c-283 -213 -514 -391 -514 -397 0 -5 24 -13 53 -18 73
-10 242 -68 332 -113 175 -88 326 -202 490 -373 60 -61 111 -111 115 -111 19
1 258 326 363 492 69 111 190 342 190 364 0 7 -46 48 -102 90 -217 165 -428
353 -428 383 0 5 5 22 10 37 6 15 9 28 7 30 -2 2 -234 -170 -516 -384z"/>
<path d="M13907 4098 c-347 -539 -748 -1168 -753 -1181 -6 -16 -2 -15 39 2 98
42 233 52 378 26 321 -55 670 -266 1017 -612 67 -68 125 -123 128 -123 9 0
169 338 222 470 136 340 216 656 229 911 l6 116 -101 6 c-148 10 -354 51 -505
101 -221 73 -400 174 -537 302 l-69 65 -54 -83z"/>
<path d="M18387 3403 c-138 -697 -199 -1080 -231 -1456 -4 -52 -3 -58 12 -52
142 59 359 125 520 159 208 44 355 50 513 21 l35 -7 33 108 c108 351 161 661
161 949 0 169 -19 305 -60 428 -49 146 -35 137 -208 137 -281 1 -587 21 -683
45 l-25 6 -67 -338z"/>
<path d="M17196 3681 c-15 -6 -76 -197 -302 -950 -156 -519 -284 -950 -284
-957 0 -12 7 -12 38 2 65 27 308 93 440 118 254 49 464 56 621 20 36 -8 68
-11 72 -7 21 23 137 395 203 654 107 417 152 770 130 1011 l-7 66 -106 16
c-58 9 -158 21 -221 26 -132 11 -556 12 -584 1z"/>
<path d="M19704 3388 c-1 -454 -61 -880 -173 -1238 -11 -35 -19 -65 -17 -67 1
-2 29 6 62 18 126 44 364 93 584 120 98 13 479 18 630 9 l85 -5 17 85 c49 240
62 588 32 822 -17 134 -60 313 -96 403 l-23 57 -280 3 c-179 1 -329 8 -415 19
-146 17 -340 44 -380 52 l-25 4 -1 -282z"/>
<path d="M15651 3573 c-224 -244 -455 -737 -555 -1183 -29 -131 -59 -300 -54
-305 7 -8 1119 -188 1124 -182 18 21 102 173 163 295 139 278 234 547 277 786
24 129 24 358 1 459 l-18 77 -102 0 c-220 0 -608 27 -723 50 -49 10 -50 12
-46 40 2 17 2 30 -1 30 -3 0 -33 -30 -66 -67z"/>
</g>
</svg>
